<mxfile host="app.diagrams.net" modified="2023-01-16T10:14:36.647Z" agent="5.0 (Windows)" etag="YQXqVJTBQUYtlni6NMmm" version="20.8.5" type="github">
  <diagram id="Vuyk-2e29oqBd6F1tE3K" name="Page-1">
    <mxGraphModel dx="1434" dy="726" grid="1" gridSize="10" guides="1" tooltips="1" connect="1" arrows="1" fold="1" page="1" pageScale="1" pageWidth="827" pageHeight="1169" math="0" shadow="0">
      <root>
        <mxCell id="0" />
        <mxCell id="1" parent="0" />
        <mxCell id="rIjrJX4Dk5kXch5xxkFY-4" value="" style="rounded=0;whiteSpace=wrap;html=1;" parent="1" vertex="1">
          <mxGeometry x="134" y="470" width="690" height="120" as="geometry" />
        </mxCell>
        <mxCell id="rIjrJX4Dk5kXch5xxkFY-3" value="" style="rounded=0;whiteSpace=wrap;html=1;" parent="1" vertex="1">
          <mxGeometry x="134" y="600" width="690" height="220" as="geometry" />
        </mxCell>
        <mxCell id="rIjrJX4Dk5kXch5xxkFY-2" value="" style="rounded=0;whiteSpace=wrap;html=1;" parent="1" vertex="1">
          <mxGeometry x="134" y="830" width="690" height="110" as="geometry" />
        </mxCell>
        <mxCell id="1Sg80rZOHdZ85smLCKLu-2" value="API passerelle (gateway)" style="rounded=1;whiteSpace=wrap;html=1;fillColor=#f8cecc;strokeColor=#b85450;" parent="1" vertex="1">
          <mxGeometry x="364" y="570" width="120" height="60" as="geometry" />
        </mxCell>
        <mxCell id="1Sg80rZOHdZ85smLCKLu-8" value="&lt;div&gt;Micro service gestion des utilisateurs&lt;br&gt;&lt;/div&gt;" style="rounded=1;whiteSpace=wrap;html=1;fillColor=#f8cecc;strokeColor=#b85450;" parent="1" vertex="1">
          <mxGeometry x="144" y="700" width="120" height="60" as="geometry" />
        </mxCell>
        <mxCell id="1Sg80rZOHdZ85smLCKLu-9" value="&lt;div&gt;Micro service gestion des documents&lt;br&gt;&lt;/div&gt;" style="rounded=1;whiteSpace=wrap;html=1;fillColor=#f8cecc;strokeColor=#b85450;" parent="1" vertex="1">
          <mxGeometry x="364" y="700" width="120" height="60" as="geometry" />
        </mxCell>
        <mxCell id="1Sg80rZOHdZ85smLCKLu-10" value="&lt;div&gt;Micro service gestion des commentaires&amp;nbsp; &lt;br&gt;&lt;/div&gt;" style="rounded=1;whiteSpace=wrap;html=1;fillColor=#f8cecc;strokeColor=#b85450;" parent="1" vertex="1">
          <mxGeometry x="604" y="700" width="120" height="60" as="geometry" />
        </mxCell>
        <mxCell id="1Sg80rZOHdZ85smLCKLu-16" value="" style="endArrow=classic;html=1;rounded=0;entryX=0.5;entryY=0;entryDx=0;entryDy=0;exitX=0.5;exitY=1;exitDx=0;exitDy=0;" parent="1" source="1Sg80rZOHdZ85smLCKLu-2" target="1Sg80rZOHdZ85smLCKLu-9" edge="1">
          <mxGeometry width="50" height="50" relative="1" as="geometry">
            <mxPoint x="314" y="810" as="sourcePoint" />
            <mxPoint x="364" y="760" as="targetPoint" />
          </mxGeometry>
        </mxCell>
        <mxCell id="1Sg80rZOHdZ85smLCKLu-18" value="" style="endArrow=classic;html=1;rounded=0;entryX=0.5;entryY=0;entryDx=0;entryDy=0;exitX=0.5;exitY=1;exitDx=0;exitDy=0;" parent="1" source="1Sg80rZOHdZ85smLCKLu-2" target="1Sg80rZOHdZ85smLCKLu-8" edge="1">
          <mxGeometry width="50" height="50" relative="1" as="geometry">
            <mxPoint x="314" y="810" as="sourcePoint" />
            <mxPoint x="364" y="760" as="targetPoint" />
          </mxGeometry>
        </mxCell>
        <mxCell id="1Sg80rZOHdZ85smLCKLu-19" value="Serveur de base de données " style="shape=datastore;whiteSpace=wrap;html=1;fillColor=#f8cecc;strokeColor=#b85450;" parent="1" vertex="1">
          <mxGeometry x="154" y="845" width="100" height="80" as="geometry" />
        </mxCell>
        <mxCell id="1Sg80rZOHdZ85smLCKLu-20" value="Serveur de base de données " style="shape=datastore;whiteSpace=wrap;html=1;fillColor=#f8cecc;strokeColor=#b85450;" parent="1" vertex="1">
          <mxGeometry x="374" y="850" width="100" height="80" as="geometry" />
        </mxCell>
        <mxCell id="1Sg80rZOHdZ85smLCKLu-21" value="Serveur de base de données " style="shape=datastore;whiteSpace=wrap;html=1;fillColor=#f8cecc;strokeColor=#b85450;" parent="1" vertex="1">
          <mxGeometry x="614" y="850" width="100" height="80" as="geometry" />
        </mxCell>
        <mxCell id="1Sg80rZOHdZ85smLCKLu-22" value="Front - end" style="rounded=1;whiteSpace=wrap;html=1;fillColor=#f8cecc;strokeColor=#b85450;" parent="1" vertex="1">
          <mxGeometry x="364" y="480" width="120" height="60" as="geometry" />
        </mxCell>
        <mxCell id="1Sg80rZOHdZ85smLCKLu-23" value="" style="endArrow=classic;html=1;rounded=0;entryX=0.5;entryY=0;entryDx=0;entryDy=0;exitX=0.5;exitY=1;exitDx=0;exitDy=0;" parent="1" source="1Sg80rZOHdZ85smLCKLu-22" target="1Sg80rZOHdZ85smLCKLu-2" edge="1">
          <mxGeometry width="50" height="50" relative="1" as="geometry">
            <mxPoint x="314" y="660" as="sourcePoint" />
            <mxPoint x="364" y="610" as="targetPoint" />
          </mxGeometry>
        </mxCell>
        <mxCell id="1Sg80rZOHdZ85smLCKLu-25" value="" style="endArrow=classic;html=1;rounded=0;entryX=0.5;entryY=0;entryDx=0;entryDy=0;exitX=0.5;exitY=1;exitDx=0;exitDy=0;" parent="1" source="1Sg80rZOHdZ85smLCKLu-8" target="1Sg80rZOHdZ85smLCKLu-19" edge="1">
          <mxGeometry width="50" height="50" relative="1" as="geometry">
            <mxPoint x="314" y="750" as="sourcePoint" />
            <mxPoint x="364" y="700" as="targetPoint" />
          </mxGeometry>
        </mxCell>
        <mxCell id="1Sg80rZOHdZ85smLCKLu-26" value="" style="endArrow=classic;html=1;rounded=0;entryX=0.5;entryY=0;entryDx=0;entryDy=0;exitX=0.5;exitY=1;exitDx=0;exitDy=0;" parent="1" source="1Sg80rZOHdZ85smLCKLu-9" target="1Sg80rZOHdZ85smLCKLu-20" edge="1">
          <mxGeometry width="50" height="50" relative="1" as="geometry">
            <mxPoint x="343.5" y="770" as="sourcePoint" />
            <mxPoint x="343.5" y="810" as="targetPoint" />
          </mxGeometry>
        </mxCell>
        <mxCell id="1Sg80rZOHdZ85smLCKLu-27" value="" style="endArrow=classic;html=1;rounded=0;entryX=0.5;entryY=0;entryDx=0;entryDy=0;exitX=0.5;exitY=1;exitDx=0;exitDy=0;" parent="1" source="1Sg80rZOHdZ85smLCKLu-10" target="1Sg80rZOHdZ85smLCKLu-21" edge="1">
          <mxGeometry width="50" height="50" relative="1" as="geometry">
            <mxPoint x="524" y="770" as="sourcePoint" />
            <mxPoint x="524" y="810" as="targetPoint" />
          </mxGeometry>
        </mxCell>
        <mxCell id="rIjrJX4Dk5kXch5xxkFY-1" value="" style="endArrow=classic;html=1;rounded=0;entryX=0.5;entryY=0;entryDx=0;entryDy=0;exitX=0.5;exitY=1;exitDx=0;exitDy=0;" parent="1" source="1Sg80rZOHdZ85smLCKLu-2" target="1Sg80rZOHdZ85smLCKLu-10" edge="1">
          <mxGeometry width="50" height="50" relative="1" as="geometry">
            <mxPoint x="344" y="660" as="sourcePoint" />
            <mxPoint x="394" y="610" as="targetPoint" />
          </mxGeometry>
        </mxCell>
        <mxCell id="rIjrJX4Dk5kXch5xxkFY-5" value="Service layer" style="text;html=1;strokeColor=none;fillColor=none;align=center;verticalAlign=middle;whiteSpace=wrap;rounded=0;" parent="1" vertex="1">
          <mxGeometry x="734" y="610" width="80" height="30" as="geometry" />
        </mxCell>
        <mxCell id="rIjrJX4Dk5kXch5xxkFY-6" value="Front layer" style="text;html=1;strokeColor=none;fillColor=none;align=center;verticalAlign=middle;whiteSpace=wrap;rounded=0;" parent="1" vertex="1">
          <mxGeometry x="744" y="480" width="60" height="30" as="geometry" />
        </mxCell>
        <mxCell id="rIjrJX4Dk5kXch5xxkFY-7" value="Data access layer" style="text;html=1;strokeColor=none;fillColor=none;align=center;verticalAlign=middle;whiteSpace=wrap;rounded=0;" parent="1" vertex="1">
          <mxGeometry x="734" y="840" width="80" height="30" as="geometry" />
        </mxCell>
        <mxCell id="rIjrJX4Dk5kXch5xxkFY-8" value="" style="ellipse;whiteSpace=wrap;html=1;aspect=fixed;fillColor=#f8cecc;strokeColor=#b85450;" parent="1" vertex="1">
          <mxGeometry x="14" y="955" width="20" height="20" as="geometry" />
        </mxCell>
        <mxCell id="rIjrJX4Dk5kXch5xxkFY-9" value="Architecture building blocks" style="text;html=1;strokeColor=none;fillColor=none;align=center;verticalAlign=middle;whiteSpace=wrap;rounded=0;" parent="1" vertex="1">
          <mxGeometry x="54" y="950" width="90" height="30" as="geometry" />
        </mxCell>
        <mxCell id="rIjrJX4Dk5kXch5xxkFY-10" value="" style="ellipse;whiteSpace=wrap;html=1;aspect=fixed;fillColor=#d5e8d4;strokeColor=#82b366;" parent="1" vertex="1">
          <mxGeometry x="214" y="955" width="20" height="20" as="geometry" />
        </mxCell>
        <mxCell id="rIjrJX4Dk5kXch5xxkFY-11" value="Solution building blocks" style="text;html=1;strokeColor=none;fillColor=none;align=center;verticalAlign=middle;whiteSpace=wrap;rounded=0;" parent="1" vertex="1">
          <mxGeometry x="254" y="950" width="90" height="30" as="geometry" />
        </mxCell>
        <mxCell id="rIjrJX4Dk5kXch5xxkFY-12" value="Angular" style="rounded=1;whiteSpace=wrap;html=1;fillColor=#d5e8d4;strokeColor=#82b366;" parent="1" vertex="1">
          <mxGeometry x="4" y="490" width="110" height="40" as="geometry" />
        </mxCell>
        <mxCell id="rIjrJX4Dk5kXch5xxkFY-13" value="Spring cloud" style="rounded=1;whiteSpace=wrap;html=1;fillColor=#d5e8d4;strokeColor=#82b366;" parent="1" vertex="1">
          <mxGeometry x="9" y="695" width="100" height="40" as="geometry" />
        </mxCell>
        <mxCell id="rIjrJX4Dk5kXch5xxkFY-14" value="Spring boot" style="rounded=1;whiteSpace=wrap;html=1;fillColor=#d5e8d4;strokeColor=#82b366;" parent="1" vertex="1">
          <mxGeometry x="9" y="655" width="100" height="40" as="geometry" />
        </mxCell>
        <mxCell id="rIjrJX4Dk5kXch5xxkFY-15" value="Cloud AWS" style="rounded=1;whiteSpace=wrap;html=1;fillColor=#d5e8d4;strokeColor=#82b366;" parent="1" vertex="1">
          <mxGeometry x="9" y="865" width="100" height="40" as="geometry" />
        </mxCell>
        <mxCell id="yyKlO_owRGHJmFKWj0uO-1" value="Spring security" style="rounded=1;whiteSpace=wrap;html=1;fillColor=#d5e8d4;strokeColor=#82b366;" parent="1" vertex="1">
          <mxGeometry x="9" y="735" width="100" height="40" as="geometry" />
        </mxCell>
        <mxCell id="yyKlO_owRGHJmFKWj0uO-2" value="Spring initializr" style="rounded=1;whiteSpace=wrap;html=1;fillColor=#d5e8d4;strokeColor=#82b366;" parent="1" vertex="1">
          <mxGeometry x="9" y="615" width="100" height="40" as="geometry" />
        </mxCell>
        <mxCell id="yyKlO_owRGHJmFKWj0uO-3" value="Docker" style="rounded=1;whiteSpace=wrap;html=1;fillColor=#d5e8d4;strokeColor=#82b366;" parent="1" vertex="1">
          <mxGeometry x="4" y="530" width="110" height="40" as="geometry" />
        </mxCell>
        <mxCell id="yyKlO_owRGHJmFKWj0uO-4" value="Docker" style="rounded=1;whiteSpace=wrap;html=1;fillColor=#d5e8d4;strokeColor=#82b366;" parent="1" vertex="1">
          <mxGeometry x="9" y="775" width="100" height="35" as="geometry" />
        </mxCell>
      </root>
    </mxGraphModel>
  </diagram>
</mxfile>
